Coordinates
version=1
nRows=27
nColumns=19
inDegrees=yes

Units are S.I. units (second, meters, Newtons, ...)
If the header above contains a line with 'inDegrees', this indicates whether rotational values are in degrees (yes) or radians (no).

endheader
time	pelvis_tilt	pelvis_list	pelvis_rotation	pelvis_tx	pelvis_ty	pelvis_tz	hip_flexion_r	hip_adduction_r	hip_rotation_r	knee_angle_r	knee_angle_r_beta	ankle_angle_r	hip_flexion_l	hip_adduction_l	hip_rotation_l	knee_angle_l	knee_angle_l_beta	ankle_angle_l
     10.62666667	     -4.75089709	     -7.09198756	     -4.13764311	      2.23071400	      0.99957689	      1.05264370	     23.51108256	     12.05829885	     -7.88159183	      9.83089536	      0.17158149	      1.68349131	    -10.35639398	    -12.13641989	    -16.92400536	     55.13639776	      0.96231168	     -9.10062664
     10.63333333	     -3.87009636	     -7.77373250	     -4.54169830	      2.23053948	      0.99536469	      1.05305994	     22.89036601	     12.65501477	     -8.44611161	     11.99655941	      0.20937946	      1.72535154	    -10.67235788	    -12.97845196	    -16.80199401	     57.93411237	      1.01114101	     -8.98049177
     10.64000000	     -3.84871899	     -8.09313229	     -5.01384789	      2.22991633	      0.98984059	      1.05346393	     23.57897706	     12.83082665	     -9.09373470	     14.98112099	      0.26146989	      2.08763227	     -9.80533482	    -13.39649138	    -16.26862907	     60.93526785	      1.06352105	     -8.76580645
     10.64666667	     -3.65534919	     -8.48845217	     -5.46566675	      2.22914205	      0.98429245	      1.05372894	     24.09209199	     13.05839458	     -9.59308901	     18.05985271	      0.31520389	      2.54271487	     -9.06940866	    -13.86758566	    -15.73893392	     63.95067463	      1.11614983	     -8.50646349
     10.65333333	     -3.51563551	     -8.83316746	     -5.93053234	      2.22812396	      0.97849466	      1.05392883	     24.75524258	     13.22400896	     -9.98830457	     21.35331759	      0.37268570	      3.20342630	     -8.17749845	    -14.27425426	    -15.17441039	     67.00783004	      1.16950726	     -8.16907329
     10.66000000	     -3.45634455	     -9.10909231	     -6.40808787	      2.22688197	      0.97246671	      1.05403275	     25.58389527	     13.31524679	    -10.26941581	     24.82135181	      0.43321431	      4.10143688	     -7.09493060	    -14.58021360	    -14.54210998	     70.09381511	      1.22336786	     -7.77560528
     10.66666667	     -3.43334471	     -9.30755535	     -6.85063576	      2.22546662	      0.96636826	      1.05407937	     26.47082653	     13.33143088	    -10.47171959	     28.32751265	      0.49440836	      5.22371006	     -5.86069327	    -14.82616520	    -13.87231556	     73.18436384	      1.27730811	     -7.32978215
     10.67333333	     -3.40666305	     -9.42922193	     -7.25216651	      2.22387801	      0.96032616	      1.05402788	     27.34724920	     13.27625314	    -10.56560482	     31.81950005	      0.55535504	      6.60154982	     -4.51883747	    -14.95793429	    -13.11618574	     76.23962683	      1.33063251	     -6.86387640
     10.68000000	     -2.91012225	     -9.71929193	     -7.60434764	      2.22227314	      0.95499737	      1.05389205	     27.54088413	     13.38727387	    -10.55172566	     35.01833007	      0.61118516	      8.12761066	     -3.71403925	    -15.29285299	    -12.55328641	     79.16545812	      1.38169790	     -6.34836147
     10.68666667	     -3.48641061	     -9.46254806	     -7.90075008	      2.22032642	      0.94858864	      1.05370881	     29.00182479	     13.02137725	    -10.45748132	     38.32754384	      0.66894183	      9.81577429	     -1.33798694	    -15.05011951	    -11.46024357	     82.24833864	      1.43550431	     -5.87738219
     10.69333333	     -3.52411265	     -9.34880488	     -8.10072430	      2.21837235	      0.94316262	      1.05340933	     29.64239929	     12.79016008	    -10.25150460	     41.22599030	      0.71952927	     11.61988098	      0.44257717	    -14.93674359	    -10.50325197	     85.13643781	      1.48591115	     -5.41247325
     10.70000000	     -3.57241572	     -9.18205810	     -8.22971187	      2.21635938	      0.93810756	      1.05300953	     30.12368367	     12.51994486	     -9.97273031	     43.81577960	      0.76472962	     13.45885350	      2.34233648	    -14.74946914	     -9.48664124	     87.91745695	      1.53444909	     -4.98325202
     10.70666667	     -3.63107649	     -8.96529204	     -8.26623521	      2.21426130	      0.93348166	      1.05251649	     30.43400585	     12.20848550	     -9.64045236	     46.07156888	      0.80410057	     15.29378988	      4.36638589	    -14.48373060	     -8.39429124	     90.58213890	      1.58095657	     -4.56993669
     10.71333333	     -3.69130799	     -8.70825341	     -8.22117071	      2.21210471	      0.92931538	      1.05193839	     30.56161944	     11.84985631	     -9.29931287	     48.00546536	      0.83785343	     17.06982324	      6.48769917	    -14.15075994	     -7.25616701	     93.10244922	      1.62494428	     -4.21285493
     10.72000000	     -3.69207954	     -8.44646766	     -8.06809112	      2.20992174	      0.92572661	      1.05122481	     30.43201958	     11.44934658	     -8.99605833	     49.60044200	      0.86569102	     18.74625668	      8.62298088	    -13.75953403	     -6.05658722	     95.45113163	      1.66593652	     -3.88677071
     10.72666667	     -3.77721021	     -8.18155419	     -7.90363405	      2.20773212	      0.92251126	      1.05052448	     30.20948108	     11.06846197	     -8.68032124	     50.88450025	      0.88810207	     20.28837996	     10.88234815	    -13.36953823	     -4.90219133	     97.63122466	      1.70398632	     -3.55048231
     10.73333333	     -3.66506175	     -7.96583159	     -7.61041664	      2.20560797	      0.92009986	      1.04965781	     29.58194523	     10.64952669	     -8.49308448	     51.84623393	      0.90488749	     21.67752066	     12.95371779	    -12.95957215	     -3.71183772	     99.57460761	      1.73790475	     -3.24081362
     10.74000000	     -3.50844555	     -7.79558670	     -7.36806945	      2.20355371	      0.91826739	      1.04886051	     28.73098526	     10.32108707	     -8.24607531	     52.51841244	      0.91661922	     22.91622653	     14.92577227	    -12.59782065	     -2.65430140	    101.27774032	      1.76763003	     -2.88920480
     10.74666667	     -3.48168309	     -7.61012943	     -7.04364501	      2.20155679	      0.91678454	      1.04802509	     27.89722462	      9.93890465	     -8.12667433	     52.96769359	      0.92446065	     23.94077913	     17.07719090	    -12.24224130	     -1.60191288	    102.77846974	      1.79382270	     -2.56155204
     10.75333333	     -3.26290457	     -7.47757784	     -6.92293724	      2.19982189	      0.91612051	      1.04744626	     26.67465752	      9.71366835	     -7.79599111	     53.14262120	      0.92751371	     24.98307364	     18.83064517	    -11.99068163	     -0.88411619	    103.94970212	      1.81426456	     -2.13514054
     10.76000000	     -3.31775513	     -7.35667527	     -6.53668212	      2.19806480	      0.91561561	      1.04657393	     25.67498667	      9.36923053	     -7.82344961	     53.14004139	      0.92746869	     25.59468902	     21.01259018	    -11.67440514	      0.10067393	    104.96773187	      1.83203253	     -1.79197148
     10.76666667	     -3.13115977	     -7.17755475	     -6.53331175	      2.19656894	      0.91607300	      1.04619530	     24.27510523	      9.16866882	     -7.36386910	     52.92575190	      0.92372863	     26.20607752	     22.64627376	    -11.46763098	      0.47580204	    105.58556132	      1.84281569	     -1.33508626
     10.77333333	     -3.06641691	     -7.12876570	     -6.20204426	      2.19529247	      0.91684786	      1.04546664	     22.87723581	      8.93067976	     -7.39010780	     52.46317551	      0.91565515	     26.63330252	     24.48637852	    -11.29241055	      1.16915404	    106.03183202	      1.85060458	     -0.87499681
     10.78000000	     -3.02099355	     -6.90617287	     -6.20538120	      2.19417354	      0.91822909	      1.04516672	     21.43959652	      8.70541950	     -6.93833252	     51.88431897	      0.90555220	     26.93948316	     26.12535359	    -11.10357592	      1.33718322	    106.12652609	      1.85225730	     -0.39282898
     10.78666667	     -3.06328428	     -6.66448202	     -6.19005385	      2.19333933	      0.92011322	      1.04488808	     19.97183706	      8.45763747	     -6.53035949	     51.07098716	      0.89135688	     27.09910360	     27.76366544	    -10.91328825	      1.42489927	    105.94316393	      1.84905703	      0.10697762
     10.79333333	     -2.95687834	     -6.59435966	     -6.01192228	      2.19284706	      0.92268192	      1.04443731	     18.17504659	      8.34083349	     -6.29772661	     49.95317632	      0.87184740	     27.18282554	     29.16682512	    -10.85680051	      1.61484261	    105.53111553	      1.84186543	      0.65598055
     10.80000000	     -2.67851738	     -6.35001255	     -6.01050390	      2.19266939	      0.92613059	      1.04425908	     16.09903262	      8.09730370	     -5.81788511	     48.64950113	      0.84909397	     27.00561862	     30.14562585	    -10.74496124	      1.38229665	    104.74733159	      1.82818582	      1.17971239
